<?xml version="1.0" encoding="utf-8"?>
<!-- Generator: Adobe Illustrator 25.1.0, SVG Export Plug-In . SVG Version: 6.00 Build 0)  -->
<svg version="1.1" id="Capa_1" xmlns="http://www.w3.org/2000/svg" xmlns:xlink="http://www.w3.org/1999/xlink" x="0px" y="0px"
	 viewBox="0 0 783 198.9" style="enable-background:new 0 0 783 198.9;" xml:space="preserve">
<style type="text/css">
	.st0{fill:#D88506;}
	.st1{fill:#FFFFFF;}
	.st2{fill-rule:evenodd;clip-rule:evenodd;fill:#FFFFFF;}
</style>
<g>
	<path class="st0" d="M518.9,104.7l26,7.9c-1.7,7.3-4.5,13.4-8.3,18.3s-8.4,8.6-14,11.1s-12.7,3.7-21.3,3.7c-10.4,0-19-1.5-25.6-4.5
		s-12.3-8.4-17.1-16c-4.8-7.6-7.2-17.4-7.2-29.3c0-15.9,4.2-28.1,12.7-36.6c8.4-8.5,20.4-12.8,35.9-12.8c12.1,0,21.6,2.4,28.5,7.3
		s12.1,12.4,15.4,22.5L517.8,82c-0.9-2.9-1.9-5.1-2.9-6.4c-1.7-2.3-3.7-4-6.1-5.2c-2.4-1.2-5.1-1.8-8.1-1.8
		c-6.7,0-11.9,2.7-15.5,8.1c-2.7,4-4.1,10.3-4.1,18.9c0,10.6,1.6,17.9,4.8,21.9c3.2,3.9,7.8,5.9,13.6,5.9c5.7,0,10-1.6,12.9-4.8
		C515.5,115.4,517.6,110.8,518.9,104.7z"/>
	<path class="st0" d="M548.6,96c0-15.7,4.4-27.9,13.1-36.6c8.7-8.7,20.9-13.1,36.5-13.1c16,0,28.3,4.3,36.9,12.9
		c8.6,8.6,13,20.6,13,36.1c0,11.2-1.9,20.4-5.7,27.6c-3.8,7.2-9.2,12.8-16.4,16.8c-7.1,4-16,6-26.7,6c-10.8,0-19.8-1.7-26.9-5.2
		c-7.1-3.4-12.8-8.9-17.3-16.4C550.8,116.6,548.6,107.3,548.6,96z M578.2,96.2c0,9.7,1.8,16.7,5.4,20.9c3.6,4.2,8.5,6.4,14.7,6.4
		c6.4,0,11.3-2.1,14.8-6.2s5.2-11.6,5.2-22.3c0-9-1.8-15.6-5.5-19.8c-3.6-4.2-8.6-6.3-14.8-6.3c-6,0-10.8,2.1-14.4,6.4
		C580,79.4,578.2,86.4,578.2,96.2z"/>
	<path class="st0" d="M655,48h29.7v72.4H731v7.2v10.9c0,3.1-2.5,5.6-5.6,5.6H655V48z"/>
</g>
<path class="st1" d="M124.9,144.6c-6.5,0-13-1.2-19-3.7c-18-7.3-29.7-24.9-29.6-44.3c-0.1-6.5,1.2-12.9,3.8-18.8
	c2.5-5.7,6.1-10.9,10.6-15.2c4.6-4.4,10-7.8,15.9-10.1c6.2-2.4,12.8-3.7,19.5-3.6c7.5-0.1,14.9,1.4,21.8,4.3
	c6.3,2.7,11.8,6.8,16.3,12l-14.1,14.1c-2.8-3.7-6.4-6.7-10.5-8.7c-4.3-2-9-3-13.7-2.9c-5.1-0.1-10.1,1.2-14.6,3.7
	c-4.2,2.4-7.7,5.9-10.1,10.1c-2.5,4.7-3.7,9.9-3.6,15.2c-0.1,5.3,1.1,10.6,3.6,15.3c2.2,4.3,5.6,7.8,9.7,10.3
	c4.3,2.5,9.2,3.8,14.2,3.7c4.8,0.1,9.6-0.9,13.9-3.1c3.8-2,6.8-5.1,8.8-8.9c2.2-4.4,3.2-9.3,3.1-14.3l13.7,9.2l-41.4-0.7V90.5H172v3
	c0,11.1-2,20.5-6,28.1c-3.7,7.3-9.4,13.3-16.6,17.2C141.8,142.8,133.4,144.8,124.9,144.6z"/>
<path class="st1" d="M211,144.6c-5.4,0.1-10.8-1.1-15.6-3.6c-4.4-2.3-8.1-5.7-10.6-10c-2.6-4.5-3.9-9.5-3.8-14.7V79.2h20.1V116
	c0,1.9,0.3,3.9,1.1,5.7c0.7,1.5,1.9,2.8,3.4,3.7c1.6,0.9,3.5,1.4,5.4,1.3c2.7,0.1,5.3-0.9,7.1-2.8s2.6-4.5,2.6-7.8V79.2h20.1v37
	c0.1,5.2-1.2,10.3-3.8,14.8c-2.5,4.2-6.2,7.7-10.5,10C221.7,143.5,216.4,144.7,211,144.6z"/>
<path class="st1" d="M263.6,70.4c-3,0.1-5.8-1.1-7.8-3.2c-4.1-4.4-4.1-11.3,0-15.7c2.1-2.1,4.9-3.3,7.8-3.2c2.9-0.1,5.7,1.1,7.8,3.2
	c4,4.5,4,11.3,0,15.7C269.4,69.3,266.6,70.5,263.6,70.4z M253.5,143.1v-64h20.1v64H253.5z"/>
<path class="st1" d="M282.4,96.2v-17h49.1v17.1L282.4,96.2L282.4,96.2z M296.9,143.1V52.7H317v90.4H296.9z"/>
<path class="st1" d="M365.7,144.4c-5.6,0.1-11-1.4-15.7-4.3c-4.6-2.9-8.4-7-10.9-11.9c-2.7-5.3-4.1-11.2-4-17.1
	c-0.1-5.9,1.3-11.8,4-17.1c2.5-4.8,6.3-8.9,10.9-11.8c4.7-2.9,10.2-4.4,15.7-4.3c4-0.1,8,0.8,11.6,2.5c3.3,1.6,6.3,3.9,8.5,6.9
	c2.2,2.9,3.5,6.4,3.7,10.1V125c-0.2,3.6-1.5,7.1-3.6,10.1c-2.2,3-5.1,5.4-8.5,6.9C373.8,143.7,369.8,144.5,365.7,144.4z
	 M369.8,126.2c3.9,0.2,7.7-1.4,10.4-4.3c2.7-3,4.1-6.9,4-10.9c0.1-2.7-0.6-5.4-1.8-7.9c-1.1-2.2-2.9-4.1-5-5.3
	c-4.6-2.5-10.2-2.5-14.9,0c-2.2,1.3-4,3.1-5.2,5.4c-2.5,4.9-2.5,10.7-0.1,15.7c1.2,2.2,3,4.1,5.1,5.4
	C364.7,125.6,367.2,126.3,369.8,126.2z M383.3,143.1v-17.2l3-15.5l-3-15.5V79.2h19.8v64L383.3,143.1L383.3,143.1z"/>
<path class="st1" d="M417.3,143.1v-64h20.1v64H417.3z M437.5,108l-8.4-6.6c1.7-7.5,4.5-13.2,8.4-17.4c4-4.1,9.4-6.2,16.5-6.2
	c2.8-0.1,5.5,0.4,8.1,1.4c2.3,0.9,4.4,2.4,6.1,4.3l-12,15.1c-0.9-1-2-1.7-3.3-2.2c-1.4-0.5-2.9-0.8-4.5-0.8c-3-0.2-5.9,1-8,3.1
	C438.4,100.8,437.4,103.9,437.5,108L437.5,108z"/>
<path class="st1" d="M76.3,196.6v-32h7.1v32H76.3z"/>
<path class="st1" d="M89.6,196.6v-32h5l2.1,6.4v25.6H89.6z M111.7,196.6l-18.8-24.1l1.8-7.8l18.8,24.1L111.7,196.6z M111.7,196.6
	l-1.9-6.4v-25.6h7.1v32H111.7z"/>
<path class="st1" d="M132,197.1c-2.3,0.1-4.6-0.4-6.8-1.3c-2-0.9-3.7-2.3-5.2-3.9l4.6-4.6c1,1.1,2.1,2.1,3.4,2.7
	c1.4,0.7,2.9,1,4.4,1c1.2,0.1,2.4-0.2,3.5-0.8c0.8-0.5,1.3-1.3,1.2-2.3c0-0.8-0.3-1.6-0.8-2.1c-0.6-0.6-1.4-1.1-2.1-1.4
	c-0.9-0.4-1.9-0.8-2.9-1.1s-2.1-0.8-3.2-1.2c-1-0.5-2-1.1-2.9-1.8s-1.6-1.6-2.1-2.7c-2.2-4.4-0.5-9.8,4-12.1
	c0.2-0.1,0.4-0.2,0.6-0.3c1.8-0.8,3.8-1.1,5.8-1.1c2.1,0,4.2,0.4,6.1,1.2c1.8,0.7,3.3,1.8,4.6,3.2l-4.6,4.6
	c-0.8-0.9-1.8-1.6-2.9-2.2c-1-0.5-2.2-0.7-3.3-0.7c-1-0.1-2.1,0.2-2.9,0.7c-0.7,0.4-1.1,1.2-1.1,2s0.3,1.5,0.8,2
	c0.6,0.6,1.4,1,2.1,1.3c0.9,0.4,1.9,0.7,2.9,1.1s2.1,0.8,3.2,1.3c1,0.5,2,1.1,2.9,1.8c0.9,0.8,1.6,1.7,2.1,2.8
	c0.6,1.3,0.9,2.7,0.8,4.2c0.1,2.8-1.1,5.4-3.3,7.2C138.9,196.2,135.9,197.1,132,197.1z"/>
<path class="st1" d="M145.5,170.8v-6.2h27.1v6.2H145.5z M155.5,196.6v-31.5h7.1v31.5H155.5z"/>
<path class="st1" d="M176.6,196.6v-32h7.1v32H176.6z M182,183.4v-5.2h6.7c1.2,0.1,2.4-0.3,3.3-1.1c1.5-1.6,1.5-4.2,0-5.8
	c-0.9-0.8-2.1-1.2-3.3-1.1H182v-5.5h7.6c1.9,0,3.8,0.4,5.6,1.2c1.5,0.7,2.8,1.9,3.8,3.3c1.8,3,1.8,6.8,0,9.8
	c-0.9,1.4-2.3,2.6-3.8,3.3c-1.8,0.8-3.8,1.2-5.8,1.2L182,183.4z M194,196.6l-10-13.8l6.5-1.8l11.9,15.5L194,196.6z"/>
<path class="st1" d="M218.3,197.1c-2.4,0.1-4.9-0.5-7-1.7c-2-1.1-3.6-2.7-4.7-4.6c-1.2-2.1-1.7-4.4-1.7-6.8v-19.4h7.1v19.8
	c0,1.2,0.3,2.3,0.8,3.3c0.5,0.9,1.3,1.7,2.2,2.1c1,0.5,2.1,0.8,3.1,0.8c1.1,0,2.2-0.2,3.2-0.8c0.9-0.5,1.6-1.2,2.1-2.1
	c0.5-1,0.8-2.1,0.8-3.3v-19.8h7.2V184c0,2.4-0.5,4.7-1.7,6.8c-1.1,1.9-2.7,3.5-4.7,4.6C223,196.6,220.7,197.1,218.3,197.1z"/>
<path class="st1" d="M237.2,196.6v-32h5.1l12.6,19.6h-2.6l12.5-19.6h5.1v32h-7.1v-20l1.3,0.3l-8.2,12.8h-4.7l-8.1-12.8l1.2-0.3v20
	H237.2z"/>
<path class="st1" d="M276.1,196.6v-32h7.1v32H276.1z M281.5,170.7v-6.1h17.3v6.1H281.5z M281.5,183.2v-5.9h15.9v5.9H281.5z
	 M281.5,196.6v-6.2H299v6.2H281.5z"/>
<path class="st1" d="M303.9,196.6v-32h5l2.1,6.4v25.6H303.9z M326,196.6l-18.9-24.1l1.8-7.8l18.8,24.1L326,196.6z M326,196.6
	l-1.9-6.4v-25.6h7.1v32H326z"/>
<path class="st1" d="M335.2,170.8v-6.2h27.2v6.2H335.2z M345.2,196.6v-31.5h7.1v31.5H345.2z"/>
<path class="st1" d="M379.9,197.1c-2.3,0-4.6-0.4-6.7-1.3c-2-0.8-3.8-2-5.4-3.5c-1.5-1.5-2.7-3.3-3.6-5.3c-1.7-4.2-1.7-8.8,0-13
	c0.8-2,2-3.7,3.5-5.2s3.3-2.7,5.3-3.5c4.3-1.7,9-1.7,13.3,0c2,0.8,3.8,2,5.3,3.5s2.7,3.3,3.5,5.3c1.7,4.2,1.7,8.8,0,13
	c-0.8,2-2,3.8-3.5,5.2c-1.5,1.5-3.3,2.7-5.3,3.5C384.4,196.7,382.1,197.2,379.9,197.1z M379.8,190.7c1.7,0,3.5-0.4,5-1.3
	c1.4-0.8,2.6-2.1,3.3-3.6c0.8-1.6,1.2-3.4,1.2-5.3c0-1.4-0.2-2.8-0.7-4.1c-0.4-1.2-1.1-2.3-2-3.2c-0.8-0.9-1.9-1.6-3-2
	c-1.2-0.5-2.5-0.7-3.9-0.7c-1.7,0-3.5,0.4-5,1.2c-1.4,0.8-2.6,2-3.3,3.4c-0.8,1.6-1.2,3.4-1.2,5.3c0,1.4,0.2,2.8,0.7,4.1
	c0.4,1.2,1.1,2.3,1.9,3.2s1.9,1.6,3,2.1C377.1,190.4,378.4,190.7,379.8,190.7z"/>
<path class="st1" d="M410,197.1c-2.3,0.1-4.6-0.4-6.8-1.3c-2-0.9-3.7-2.3-5.2-3.9l4.6-4.6c1,1.1,2.1,2.1,3.4,2.7
	c1.4,0.7,2.9,1,4.4,1c1.2,0.1,2.4-0.2,3.5-0.8c0.8-0.5,1.3-1.3,1.2-2.3c0-0.8-0.3-1.6-0.8-2.1c-0.6-0.6-1.4-1.1-2.1-1.4
	c-0.9-0.4-1.9-0.8-3-1.1s-2.1-0.8-3.2-1.2c-1-0.5-2-1.1-2.9-1.8s-1.6-1.6-2.1-2.7c-2.2-4.4-0.5-9.8,4-12.1c0.2-0.1,0.4-0.2,0.6-0.3
	c1.9-0.8,3.8-1.1,5.9-1.1s4.2,0.4,6.1,1.2c1.8,0.7,3.3,1.8,4.6,3.2l-4.6,4.6c-0.8-0.9-1.8-1.6-2.9-2.2c-1-0.5-2.2-0.7-3.3-0.7
	c-1-0.1-2,0.2-2.9,0.7c-0.7,0.4-1.1,1.2-1.1,2s0.3,1.5,0.8,2c0.6,0.6,1.4,1,2.1,1.3c0.9,0.4,1.9,0.7,3,1.1s2.1,0.8,3.2,1.3
	c1,0.5,2,1.1,2.9,1.8c0.9,0.8,1.6,1.7,2.1,2.8c0.6,1.3,0.9,2.7,0.8,4.2c0.1,2.8-1.1,5.4-3.3,7.2C416.8,196.2,413.8,197.1,410,197.1z
	"/>
<path class="st1" d="M434.8,188.1V182h16v6.1H434.8z"/>
<path class="st1" d="M480.1,197.1c-2.3,0-4.5-0.4-6.6-1.2c-4-1.6-7.2-4.8-8.9-8.8c-1.7-4.2-1.7-8.8,0-13c0.8-2,2-3.7,3.5-5.2
	s3.3-2.7,5.3-3.5c4.3-1.6,9.1-1.6,13.4,0c1.9,0.8,3.7,1.9,5.2,3.4l-4.8,4.8c-0.9-0.9-1.9-1.6-3.1-2.1c-1.3-0.5-2.7-0.8-4.1-0.8
	c-1.3,0-2.6,0.2-3.8,0.7c-1.1,0.4-2.2,1.1-3,2c-0.9,0.9-1.5,2-2,3.2c-0.9,2.7-0.9,5.5,0,8.2c0.4,1.2,1.1,2.3,2,3.2
	c0.8,0.9,1.9,1.6,3,2c1.2,0.5,2.5,0.7,3.8,0.7c1.5,0,2.9-0.2,4.3-0.8c1.2-0.5,2.2-1.2,3.1-2.1l4.8,4.8c-1.5,1.4-3.3,2.6-5.3,3.4
	C484.8,196.7,482.4,197.1,480.1,197.1z"/>
<path class="st1" d="M509,197.1c-2.4,0.1-4.8-0.5-7-1.7c-2-1.1-3.6-2.7-4.7-4.6c-1.2-2.1-1.7-4.4-1.7-6.8v-19.4h7.2v19.8
	c0,1.2,0.3,2.3,0.8,3.3c0.5,0.9,1.3,1.7,2.2,2.1c1,0.5,2.1,0.8,3.2,0.8s2.2-0.2,3.2-0.8c0.9-0.5,1.6-1.2,2.2-2.1
	c0.6-1,0.8-2.1,0.8-3.3v-19.8h7.2V184c0,2.4-0.5,4.7-1.7,6.8c-1.1,1.9-2.7,3.5-4.7,4.6C513.8,196.6,511.4,197.2,509,197.1z"/>
<path class="st1" d="M527.9,196.6v-32h7.1v32H527.9z M533.3,183.4v-5.2h6.7c1.2,0.1,2.4-0.3,3.3-1.1c1.5-1.6,1.5-4.2,0-5.8
	c-0.9-0.8-2.1-1.2-3.3-1.1h-6.8v-5.5h7.6c1.9,0,3.8,0.4,5.6,1.2c1.5,0.7,2.8,1.9,3.8,3.3c1.8,3,1.8,6.8,0,9.8
	c-0.9,1.4-2.2,2.6-3.8,3.3c-1.8,0.8-3.8,1.2-5.8,1.2L533.3,183.4z M545.3,196.6l-10-13.8l6.5-1.8l11.9,15.5L545.3,196.6z"/>
<path class="st1" d="M565.6,197.1c-2.3,0.1-4.6-0.4-6.8-1.3c-2-0.9-3.7-2.3-5.2-3.9l4.6-4.6c1,1.1,2.1,2.1,3.4,2.7
	c1.4,0.7,2.9,1,4.4,1c1.2,0.1,2.4-0.2,3.5-0.8c0.8-0.5,1.3-1.3,1.2-2.3c0-0.8-0.3-1.6-0.8-2.1c-0.6-0.6-1.4-1.1-2.2-1.4
	c-0.9-0.4-1.9-0.8-3-1.1s-2.1-0.8-3.2-1.2c-1-0.5-2-1.1-2.9-1.8s-1.6-1.6-2.2-2.7c-2.2-4.4-0.5-9.8,4-12.1c0.2-0.1,0.4-0.2,0.6-0.3
	c1.9-0.8,3.8-1.1,5.8-1.1c2.1,0,4.2,0.4,6.1,1.2c1.8,0.7,3.3,1.8,4.6,3.2l-4.6,4.6c-0.8-0.9-1.8-1.6-2.9-2.2c-1-0.5-2.2-0.7-3.3-0.7
	c-1-0.1-2,0.2-2.9,0.7c-0.7,0.4-1.1,1.2-1.1,2s0.3,1.5,0.8,2c0.6,0.6,1.4,1,2.2,1.3c0.9,0.4,1.9,0.7,3,1.1s2.1,0.8,3.2,1.3
	c1,0.5,2,1.1,2.9,1.8c0.9,0.8,1.6,1.7,2.2,2.8c0.6,1.3,0.9,2.7,0.8,4.2c0.1,2.8-1.1,5.4-3.3,7.2
	C572.5,196.2,569.4,197.1,565.6,197.1z"/>
<path class="st1" d="M598,197.1c-2.3,0-4.6-0.4-6.7-1.3c-2-0.8-3.8-2-5.4-3.5c-1.5-1.5-2.8-3.3-3.6-5.3c-1.7-4.2-1.7-8.8,0-13
	c0.8-2,2-3.7,3.5-5.2s3.3-2.7,5.3-3.5c4.3-1.7,9-1.7,13.3,0c2,0.8,3.8,2,5.3,3.5s2.7,3.3,3.6,5.3c1.7,4.2,1.7,8.8,0,13
	c-1.7,4-4.9,7.1-8.9,8.8C602.5,196.7,600.2,197.2,598,197.1z M597.9,190.7c1.7,0,3.5-0.4,5-1.3c1.4-0.8,2.6-2.1,3.3-3.6
	c0.8-1.6,1.2-3.4,1.2-5.3c0-1.4-0.2-2.8-0.7-4.1c-0.4-1.2-1.1-2.3-1.9-3.2c-0.8-0.9-1.9-1.6-3-2c-1.2-0.5-2.5-0.7-3.9-0.7
	c-1.7,0-3.5,0.4-5,1.2c-1.4,0.8-2.6,2-3.3,3.5c-0.8,1.6-1.2,3.4-1.2,5.3c0,1.4,0.2,2.8,0.7,4.1c0.4,1.2,1.1,2.3,1.9,3.2
	c0.8,0.9,1.9,1.6,3,2.1C595.2,190.5,596.6,190.7,597.9,190.7z"/>
<path class="st1" d="M628.1,197.1c-2.3,0.1-4.6-0.4-6.8-1.3c-2-0.9-3.7-2.3-5.2-3.9l4.6-4.6c1,1.1,2.1,2.1,3.4,2.7
	c1.4,0.7,2.9,1,4.4,1c1.2,0.1,2.4-0.2,3.5-0.8c0.8-0.5,1.3-1.3,1.3-2.3c0-0.8-0.3-1.6-0.8-2.1c-0.6-0.6-1.4-1.1-2.2-1.4
	c-0.9-0.4-1.9-0.8-2.9-1.1s-2.1-0.8-3.2-1.2c-1-0.5-2-1.1-2.9-1.8s-1.6-1.6-2.2-2.7c-2.2-4.4-0.5-9.9,4-12.1
	c0.2-0.1,0.4-0.2,0.6-0.3c1.8-0.8,3.8-1.1,5.8-1.1c2.1,0,4.2,0.4,6.1,1.2c1.8,0.7,3.3,1.8,4.6,3.2l-4.6,4.6
	c-0.8-0.9-1.8-1.6-2.9-2.2c-1-0.5-2.2-0.7-3.3-0.7c-1-0.1-2,0.2-2.9,0.7c-0.7,0.4-1.1,1.2-1.1,2s0.3,1.5,0.8,2
	c0.6,0.6,1.4,1,2.2,1.3c0.9,0.4,1.9,0.7,2.9,1.1c1.1,0.4,2.1,0.8,3.2,1.3c1,0.5,2,1.1,2.9,1.8c0.9,0.8,1.6,1.7,2.2,2.8
	c0.6,1.3,0.9,2.8,0.8,4.2c0.1,2.8-1.1,5.4-3.3,7.2C634.9,196.2,631.9,197.1,628.1,197.1z"/>
<path class="st2" d="M9.7,106.2c-3-0.1-5.7,4.7-5.4,12c0.4,8.6,6.4,17.3,6.4,25.6c0,7.1-10.8,14.8-10.7,29.4
	c0.1,16.6,8.4,25.7,31.1,25.7s28.3-10.9,28.3-25c0-13-8.4-17.4-8.4-27.1c0-10.2,5.4-14.9,6.4-20.6c1.2-6.8-2.6-9.9-5.3-8.8
	c-2.5,1-1.3,7.4-9.9,7.6c-4.1,0.1-7.2-3.8-7.2-13.3s-9.6-10.6-10.2-1.2c-0.2,2.8-1.1,8.1-6.8,8.2C11.7,118.6,13.5,106.4,9.7,106.2z"
	/>
<polygon class="st2" points="24.6,124.7 35.3,124.7 33.4,35 26.5,35 "/>
<path class="st2" d="M40.6,25.9c-0.6-5.8-0.3-11.6,0.8-17.3c1.7-8.4-0.5-13.1-5.1-2.3L25.1,32.5c-0.4,1-1.2,1.5,0.3,3.5
	c0.5,0.7,0.9,1.5,1,2.3h7.1c0-1.2,1.4-4.3,3.9-6.4C38.9,30.6,40.7,27.7,40.6,25.9z"/>
<rect x="34.3" y="8.1" transform="matrix(0.3933 -0.9194 0.9194 0.3933 12.1381 37.9167)" class="st1" width="1" height="3.4"/>
<path class="st2" d="M33,10.6l-1.1-0.5c-0.8-0.8,0-2.7,1.1-2.6L34.1,8C34.6,8.6,33.7,10.6,33,10.6z"/>
<rect x="32.5" y="12.3" transform="matrix(0.3935 -0.9193 0.9193 0.3935 7.1559 38.7887)" class="st1" width="1" height="3.4"/>
<path class="st2" d="M31.2,14.9l-1.1-0.5c-0.8-0.8,0-2.7,1.1-2.6l1.1,0.5C32.8,12.8,31.9,14.8,31.2,14.9z"/>
<rect x="30.7" y="16.5" transform="matrix(0.3936 -0.9193 0.9193 0.3936 2.1777 39.6609)" class="st1" width="1" height="3.4"/>
<path class="st2" d="M29.3,19.1l-1.1-0.5c-0.8-0.8,0-2.7,1.1-2.6l1.1,0.5C31,17,30.1,19,29.3,19.1z"/>
<rect x="28.9" y="20.8" transform="matrix(0.3931 -0.9195 0.9195 0.3931 -2.8632 40.6697)" class="st1" width="1" height="3.4"/>
<path class="st2" d="M27.5,23.3l-1.1-0.5c-0.8-0.8,0-2.7,1.1-2.6l1.1,0.5C29.1,21.2,28.3,23.2,27.5,23.3z"/>
<rect x="27.1" y="24.9" transform="matrix(0.3935 -0.9193 0.9193 0.3935 -7.7442 41.5342)" class="st1" width="1" height="3.4"/>
<path class="st2" d="M25.7,27.5L24.6,27c-0.8-0.8,0-2.7,1.1-2.6l1.1,0.5C27.3,25.5,26.5,27.5,25.7,27.5z"/>
<rect x="25.2" y="29.2" transform="matrix(0.3935 -0.9193 0.9193 0.3935 -12.827 42.4205)" class="st1" width="1" height="3.4"/>
<path class="st2" d="M23.9,31.7l-1.1-0.5c-0.8-0.8,0-2.7,1.1-2.6l1.1,0.5C25.5,29.7,24.7,31.7,23.9,31.7z"/>
</svg>
